<svg version="1.0" xmlns="http://www.w3.org/2000/svg">

<g transform="translate(0.000000,240.000000) scale(0.100000,-0.100000)"
fill="#000000" stroke="none">
<path d="M1000 2275 c-303 -68 -548 -230 -709 -467 -79 -117 -159 -327 -176
-461 l-7 -57 275 0 274 0 21 58 c91 249 360 401 617 349 193 -40 346 -168 412
-347 l21 -55 282 -3 282 -2 -7 57 c-17 135 -96 341 -178 463 -141 209 -375
375 -627 445 -80 23 -121 27 -255 31 -117 3 -178 0 -225 -11z"/>
<path d="M1065 1553 c-156 -56 -254 -163 -286 -314 -36 -165 63 -354 223 -429
174 -81 369 -49 497 81 92 93 134 224 111 342 -25 132 -112 241 -238 300 -58
27 -80 32 -162 34 -72 3 -107 -1 -145 -14z"/>
<path d="M120 1031 c0 -82 96 -328 171 -439 178 -262 455 -430 788 -479 116
-16 126 -16 242 0 390 57 688 267 856 602 43 86 85 208 101 293 l9 52 -278 0
-278 0 -12 -42 c-19 -75 -72 -161 -140 -229 -135 -136 -327 -189 -518 -144
-180 43 -339 193 -392 373 l-12 42 -269 0 -268 0 0 -29z"/>
</g>
</svg>
